<svg width="24" height="25" viewBox="0 0 24 25" fill="none" xmlns="http://www.w3.org/2000/svg">
<path d="M5.66953 10.4144L8.73167 6.27133C10.711 3.59327 11.7007 2.25425 12.6241 2.53721C13.5474 2.82018 13.5474 4.46249 13.5474 7.74712V8.05682C13.5474 9.24151 13.5474 9.83386 13.926 10.2054L13.946 10.2247C14.3327 10.5884 14.9492 10.5884 16.1822 10.5884C18.4011 10.5884 19.5106 10.5884 19.8855 11.2613C19.8917 11.2724 19.8977 11.2837 19.9036 11.295C20.2576 11.9784 19.6152 12.8475 18.3304 14.5857L15.2683 18.7287C13.2889 21.4067 12.2992 22.7458 11.3758 22.4628C10.4525 22.1798 10.4525 20.5375 10.4525 17.2528L10.4526 16.9433C10.4526 15.7585 10.4526 15.1662 10.074 14.7946L10.054 14.7754C9.6673 14.4117 9.05079 14.4117 7.81775 14.4117C5.59888 14.4117 4.48945 14.4117 4.1145 13.7387C4.10829 13.7276 4.10225 13.7164 4.09639 13.705C3.74244 13.0217 4.3848 12.1526 5.66953 10.4144Z" stroke="#F3593A" stroke-width="1.5"/>
</svg>
