<svg width="25" height="24" viewBox="0 0 25 24" fill="none" xmlns="http://www.w3.org/2000/svg">
<path d="M17.2137 2.12656C16.3784 1.69663 15.2918 2.39036 13.1187 3.77783L12.5565 4.13679C11.9389 4.53106 11.6301 4.7282 11.2836 4.78478C10.9371 4.84135 10.592 4.75097 9.90191 4.57019L9.27361 4.4056C6.84506 3.76944 5.63079 3.45136 4.93551 4.1312C4.24024 4.81103 4.52442 6.03855 5.09279 8.4936L5.23983 9.12875C5.40135 9.82639 5.4821 10.1752 5.41653 10.5216C5.35096 10.868 5.14648 11.1727 4.73754 11.7821L4.36521 12.3369C2.92609 14.4815 2.20653 15.5538 2.61218 16.4039C3.01782 17.254 4.28002 17.3189 6.80442 17.4487L7.45753 17.4823C8.17487 17.5192 8.53356 17.5377 8.83956 17.6952C9.14557 17.8526 9.36425 18.1314 9.80163 18.6888L10.1998 19.1963C11.7389 21.1578 12.5085 22.1386 13.4545 21.9842C14.4005 21.8297 14.8964 20.6423 15.8882 18.2675L16.1448 17.6531C16.4266 16.9783 16.5675 16.6409 16.8222 16.3918C17.0769 16.1428 17.4165 16.0104 18.0958 15.7454L18.7142 15.5043C21.1046 14.572 22.2997 14.1059 22.4787 13.1603C22.6577 12.2148 21.702 11.416 19.7906 9.81846L19.2961 9.40516C18.7529 8.9512 18.4813 8.7242 18.3327 8.4128C18.1841 8.10139 18.1753 7.74082 18.1578 7.01967L18.1418 6.36312C18.08 3.82537 18.0491 2.5565 17.2137 2.12656Z" fill="#00A594"/>
<path d="M20.0303 18.4697C19.7374 18.1768 19.2626 18.1768 18.9697 18.4697C18.6768 18.7626 18.6768 19.2374 18.9697 19.5303L20.9697 21.5303C21.2626 21.8232 21.7374 21.8232 22.0303 21.5303C22.3232 21.2374 22.3232 20.7626 22.0303 20.4697L20.0303 18.4697Z" fill="#00A594"/>
</svg>
