<?xml version="1.0" encoding="iso-8859-1"?>
<!-- Uploaded to: SVG Repo, www.svgrepo.com, Generator: SVG Repo Mixer Tools -->
<svg fill="#000000" height="800px" width="800px" version="1.1" id="Layer_1" xmlns="http://www.w3.org/2000/svg" xmlns:xlink="http://www.w3.org/1999/xlink" 
	 viewBox="0 0 491.52 491.52" xml:space="preserve">
<g>
	<g>
		<path d="M327.68,389.12H307.2v-40.96c0-8.806-5.612-16.159-13.414-19.067l27.894-27.894c8.008-8.008,8.008-20.951,0-28.959
			l-26.46-26.481h93.901c7.291,0,14.029-3.871,17.715-10.179c3.645-6.308,3.686-14.07,0.123-20.398l-14.623-25.764
			c-5.161-12.841-9.892-24.084-14.193-34.304c-20.48-48.763-29.839-71.004-29.839-134.636c0-11.325-9.155-20.48-20.48-20.48H167.219
			c-11.305,0-20.48,9.155-20.48,20.48c0,63.611-9.339,85.873-29.839,134.615c-4.178,9.994-8.765,20.931-13.763,33.362
			l-17.531,25.108c-4.362,6.246-4.874,14.418-1.352,21.197c3.523,6.758,10.506,10.998,18.145,10.998h93.921l-26.481,26.481
			c-7.987,8.008-7.987,20.951,0,28.959l27.914,27.894c-7.803,2.908-13.435,10.26-13.435,19.067v40.96h-20.48
			c-45.179,0-81.92,36.741-81.92,81.92c0,11.325,9.175,20.48,20.48,20.48h286.72c11.325,0,20.48-9.155,20.48-20.48
			C409.6,425.861,372.879,389.12,327.68,389.12z M245.76,254.239l32.481,32.481l-32.481,32.481l-32.461-32.481L245.76,254.239z
			 M128.389,450.56c7.086-12.247,20.316-20.48,35.451-20.48h40.96h81.92h40.96c15.155,0,28.385,8.233,35.471,20.48H128.389z"/>
	</g>
</g>
</svg>