<svg width="36" height="36" viewBox="0 0 36 36" fill="none" xmlns="http://www.w3.org/2000/svg">
<path d="M15.8305 0.0278475C16.0219 -0.0214271 16.2232 0.0112972 16.4188 0.00377439C16.7581 0.0647094 17.0808 0.278734 17.2346 0.593189C17.3441 0.810223 17.367 1.0581 17.3636 1.2977C17.3565 5.05875 17.3599 8.81979 17.3584 12.5805C17.3682 13.1815 17.1846 13.7841 16.8276 14.2693C16.6302 14.5571 16.3511 14.773 16.0739 14.9787C15.5977 15.3327 15.1847 15.7889 14.9458 16.337C14.6678 16.9606 14.6347 17.6734 14.7792 18.3351C14.9304 19.0211 15.3159 19.6519 15.8564 20.1003C16.4402 20.5911 17.1989 20.8695 17.9617 20.871C18.72 20.8781 19.4794 20.6205 20.0711 20.1447C20.5902 19.7324 20.9787 19.1584 21.1672 18.5224C21.382 17.8107 21.3361 17.0253 21.0457 16.3415C20.8144 15.7908 20.4096 15.3252 19.9282 14.9769C19.4776 14.6519 19.0913 14.2219 18.8746 13.7055C18.6692 13.2346 18.6196 12.7132 18.6391 12.2047C18.6595 10.1235 18.6448 8.0423 18.6448 5.96111C18.6448 4.36853 18.6448 2.77594 18.6448 1.18336C18.6403 0.935478 18.6899 0.679325 18.8321 0.472071C19.0025 0.218551 19.2929 0.0726084 19.5829 0.0045267C19.7563 0.00678355 19.9357 -0.0191703 20.1035 0.0383795C21.2846 0.154231 22.4427 0.440099 23.5741 0.792168C25.0832 1.27062 26.5344 1.93677 27.8674 2.79249C30.1916 4.27562 32.1156 6.34101 33.5479 8.68889C34.858 10.8337 35.6524 13.2808 35.9078 15.7784C35.9522 16.079 35.9247 16.3866 35.9981 16.6827C35.9985 17.3202 36.0034 17.9585 35.9958 18.5957C35.9116 19.0697 35.9184 19.5537 35.8446 20.0296C35.716 21.0023 35.4911 21.9603 35.2153 22.901C34.8614 24.0998 34.3197 25.2358 33.6811 26.3074C32.9058 27.6077 31.9952 28.8324 30.9326 29.9131C30.0539 30.8151 29.0617 31.5997 28.016 32.2986C26.783 33.1197 25.4552 33.8013 24.0601 34.3004C22.24 34.9541 20.3096 35.2912 18.3766 35.3148C16.081 35.3412 13.7666 35.0042 11.6128 34.1928C10.3305 33.714 9.10921 33.0764 7.97138 32.317C6.78879 31.5342 5.68745 30.6229 4.7328 29.5723C3.96773 28.7395 3.32528 27.8044 2.71405 26.8558C1.91888 25.6044 1.23769 24.2709 0.79422 22.8529C0.58358 22.1724 0.416573 21.4788 0.285676 20.7788C0.172833 20.1435 0.0754126 19.5033 0.0513395 18.8579C0.0468258 18.7567 0.00281724 18.6623 0.00206496 18.5611C0.00206496 17.96 0.00356951 17.3586 0.00131266 16.7571C-0.00959546 16.6292 0.0513395 16.5104 0.041936 16.3825C0.213081 13.8033 0.992071 11.273 2.25252 9.01952C3.63334 6.5588 5.63893 4.46858 7.98154 2.90533C10.1372 1.46546 12.6175 0.529997 15.1768 0.134672C15.3953 0.104204 15.6187 0.0944247 15.8305 0.0278475Z" fill="white"/>
<path d="M17.9037 15.8326C18.4492 15.781 19.0179 15.9729 19.4042 16.3648C19.8115 16.7624 20.0064 17.359 19.9244 17.9209C19.8608 18.3903 19.5998 18.8259 19.2255 19.1137C18.8403 19.4146 18.3337 19.5534 17.8492 19.4909C17.3192 19.4311 16.8212 19.1317 16.5229 18.689C16.2506 18.2944 16.1475 17.7896 16.2382 17.3191C16.3202 16.8621 16.5895 16.4438 16.9679 16.1752C17.2414 15.9793 17.569 15.8615 17.9037 15.8326Z" fill="#001916"/>
</svg>
