<svg width="25" height="24" viewBox="0 0 25 24" fill="none" xmlns="http://www.w3.org/2000/svg">
<path d="M19.6414 4.99997C21.4097 6.80372 22.5 9.27452 22.5 12C22.5 14.7578 21.3836 17.2549 19.5782 19.0639M5.5 19.1414C3.64864 17.3265 2.5 14.7974 2.5 12C2.5 9.23494 3.62222 6.73202 5.43603 4.92181" stroke="#878A8A" stroke-width="1.5" stroke-linecap="round" stroke-linejoin="round"/>
<path d="M16.7849 8.04397C17.8458 9.05877 18.5 10.4488 18.5 11.9822C18.5 13.5338 17.8302 14.9386 16.7469 15.9564M8.3 16C7.18918 14.9789 6.5 13.556 6.5 11.9822C6.5 10.4266 7.17333 9.01843 8.26162 8" stroke="#878A8A" stroke-width="1.5" stroke-linecap="round" stroke-linejoin="round"/>
<circle cx="12.5" cy="12" r="2" stroke="#878A8A" stroke-width="1.5"/>
</svg>
